<svg xmlns="http://www.w3.org/2000/svg" width="128" height="128" viewBox="0 0 128 128">
  <defs>
    <radialGradient id="bg" cx="50%" cy="45%" r="70%">
      <stop offset="0%" stop-color="#0c1432"/>
      <stop offset="65%" stop-color="#070815"/>
      <stop offset="100%" stop-color="#050712"/>
    </radialGradient>
    <linearGradient id="neon" x1="0" y1="0" x2="1" y2="1">
      <stop offset="0%" stop-color="#12f7ff"/>
      <stop offset="100%" stop-color="#ff2bd6"/>
    </linearGradient>
    <filter id="glow" x="-60%" y="-60%" width="220%" height="220%">
      <feGaussianBlur stdDeviation="3.2" result="b"/>
      <feColorMatrix in="b" type="matrix"
        values="1 0 0 0 0
                0 1 0 0 0
                0 0 1 0 0
                0 0 0 0.9 0" result="c"/>
      <feMerge>
        <feMergeNode in="c"/>
        <feMergeNode in="SourceGraphic"/>
      </feMerge>
    </filter>
    <filter id="soft" x="-40%" y="-40%" width="180%" height="180%">
      <feGaussianBlur stdDeviation="1.6"/>
    </filter>
  </defs>

  <rect width="128" height="128" rx="26" fill="url(#bg)"/>

  <!-- faint scanlines -->
  <g opacity="0.18">
    <rect x="14" y="26" width="100" height="2" fill="#ffffff" opacity="0.18"/>
    <rect x="14" y="40" width="100" height="2" fill="#ffffff" opacity="0.14"/>
    <rect x="14" y="54" width="100" height="2" fill="#ffffff" opacity="0.12"/>
    <rect x="14" y="68" width="100" height="2" fill="#ffffff" opacity="0.10"/>
    <rect x="14" y="82" width="100" height="2" fill="#ffffff" opacity="0.10"/>
    <rect x="14" y="96" width="100" height="2" fill="#ffffff" opacity="0.10"/>
  </g>

  <!-- neon ring -->
  <g filter="url(#glow)">
    <circle cx="64" cy="60" r="34" fill="none" stroke="url(#neon)" stroke-width="8" stroke-linecap="round"/>
  </g>

  <!-- stair motif -->
  <g filter="url(#glow)">
    <path d="M42 82h18v-10h10v-10h10V42h6v46H42z"
      fill="none" stroke="url(#neon)" stroke-width="7" stroke-linejoin="round"/>
  </g>

  <!-- tiny highlight -->
  <circle cx="44" cy="38" r="6" fill="#12f7ff" opacity="0.55" filter="url(#soft)"/>
</svg>

